<?xml version="1.0" encoding="UTF-8"?>
<svg xmlns="http://www.w3.org/2000/svg" version="1.1" viewBox="0 0 612 269.2">
  <defs>
    <style>
      .cls-1 {
        font-family: Poppins-Regular, Poppins;
        font-size: 26px;
        letter-spacing: .7em;
      }

      .cls-1, .cls-2, .cls-3 {
        isolation: isolate;
      }

      .cls-1, .cls-4 {
        fill: #fff;
      }

      .cls-2 {
        fill: #f2f2f2;
        font-family: Poppins-SemiBoldItalic, Poppins;
        font-size: 14.4px;
        font-style: italic;
        font-weight: 600;
      }

      .cls-5 {
        fill-opacity: 0;
      }

      .cls-5, .cls-6 {
        fill: #333;
      }

      .cls-7 {
        opacity: 0;
      }
    </style>
  </defs>
  <!-- Generator: Adobe Illustrator 28.7.1, SVG Export Plug-In . SVG Version: 1.2.0 Build 142)  -->
  <g>
    <g id="Layer_1">
      <g>
        <path class="cls-6" d="M81.5,113.2c-3.9-1.6-7-4-9.4-7.1-2.3-3.1-3.6-6.9-3.7-11.4h17.5c.3,2.5,1.1,4.4,2.6,5.7,1.5,1.3,3.4,2,5.8,2s4.4-.6,5.8-1.7,2.1-2.7,2.1-4.7-.6-3-1.7-4.1-2.5-2-4.1-2.7-4-1.5-7-2.4c-4.4-1.3-7.9-2.7-10.7-4-2.8-1.3-5.1-3.3-7.1-6-2-2.6-3-6.1-3-10.3,0-6.3,2.3-11.2,6.8-14.8,4.6-3.6,10.5-5.3,17.8-5.3s13.4,1.8,18,5.3c4.6,3.6,7,8.5,7.3,14.9h-17.8c0-2.2-.9-3.9-2.4-5.2s-3.4-1.9-5.7-1.9-3.6.5-4.8,1.6c-1.2,1.1-1.8,2.6-1.8,4.6s1,3.9,3.1,5.1,5.3,2.5,9.6,3.9c4.4,1.5,7.9,2.9,10.6,4.2,2.7,1.3,5.1,3.3,7.1,5.9s3,5.9,3,9.9-1,7.3-2.9,10.5c-2,3.1-4.8,5.6-8.5,7.5s-8.1,2.8-13.2,2.8-9.4-.8-13.3-2.4h0Z"/>
        <path class="cls-6" d="M144,111.2c-5.3-3-9.5-7.1-12.6-12.4s-4.7-11.2-4.7-17.9,1.6-12.5,4.7-17.8c3.1-5.3,7.3-9.4,12.6-12.3,5.3-3,11.1-4.4,17.5-4.4s12.2,1.5,17.5,4.4c5.3,3,9.5,7.1,12.5,12.3,3,5.3,4.6,11.2,4.6,17.8s-1.5,12.6-4.6,17.9-7.3,9.4-12.5,12.4c-5.3,3-11.1,4.4-17.4,4.4s-12.2-1.5-17.5-4.4h-.1ZM174.5,95.2c3.2-3.6,4.9-8.3,4.9-14.2s-1.6-10.7-4.9-14.3c-3.2-3.6-7.6-5.3-12.9-5.3s-9.8,1.8-13,5.3-4.9,8.3-4.9,14.3,1.6,10.7,4.9,14.3c3.2,3.6,7.6,5.3,13,5.3s9.7-1.8,12.9-5.4Z"/>
        <path class="cls-6" d="M306.5,47.3v13.2h-17.9v54.4h-16.5v-54.4h-17.9v-13.2h52.3Z"/>
        <path class="cls-4" d="M316.3,63.2c2.9-5.2,6.9-9.3,12.1-12.2s11-4.4,17.6-4.4,14.9,2.1,20.6,6.4c5.7,4.2,9.5,10,11.5,17.3h-18.1c-1.3-2.8-3.3-5-5.7-6.4-2.5-1.5-5.3-2.2-8.4-2.2-5.1,0-9.2,1.8-12.3,5.3-3.1,3.5-4.7,8.2-4.7,14.1s1.6,10.6,4.7,14.1,7.3,5.3,12.3,5.3,6-.7,8.4-2.2c2.5-1.5,4.4-3.6,5.7-6.4h18.1c-1.9,7.3-5.7,13.1-11.5,17.3-5.7,4.2-12.6,6.3-20.6,6.3s-12.4-1.5-17.6-4.4-9.2-7-12.1-12.2-4.3-11.1-4.3-17.8,1.4-12.6,4.3-17.9Z"/>
        <path class="cls-4" d="M430.2,103h-25.2l-4,11.9h-17.2l24.4-67.6h19.1l24.4,67.6h-17.4l-4-11.9h0ZM425.9,90.3l-8.4-24.7-8.3,24.7h16.7,0Z"/>
        <path class="cls-4" d="M493.5,114.9l-14.1-25.5h-3.9v25.5h-16.5V47.3h27.6c5.3,0,9.9.9,13.6,2.8s6.6,4.4,8.4,7.7c1.9,3.2,2.8,6.9,2.8,10.8s-1.3,8.5-3.8,12-6.3,6-11.2,7.5l15.6,26.8h-18.6s.1,0,.1,0ZM475.5,77.8h10.2c3,0,5.3-.7,6.8-2.2s2.3-3.6,2.3-6.3-.8-4.6-2.3-6.1-3.8-2.2-6.8-2.2h-10.2v16.7h0Z"/>
        <path class="cls-4" d="M538.3,60.5v13.7h22v12.7h-22v14.8h24.9v13.2h-41.4V47.3h41.4v13.2h-24.9Z"/>
        <path class="cls-6" d="M205.2,114.9V47.3h55.7v13.2h-39.3v13.7h22l-10.6,12.7h-11.5v28h-16.5.2Z"/>
      </g>
      <g class="cls-3">
        <g class="cls-3">
          <text class="cls-1" transform="translate(46.7 232)"><tspan x="0" y="0">DELIVERY SERVICES</tspan></text>
        </g>
      </g>
      <g>
        <path class="cls-4" d="M104.1,147.3c-2.7-15.4-40.4-13.6-39.6-32.4,0,0-11,17.9-2,29.8,0,0,3.7,3.1,13.4,5.5,10,2.5,10,6,10,6,0,0-3.1-2.8-8.7-3.9-3.6-.7-11.6-2.9-15.7-4.9-1,3.2-1.7,8.5,2.8,11.9,0,0,9.1,3.7,14.5,2.2,0,0-6.5,3.1-14.8-.9-.3,2,0,6,4.9,8.2,6.9,3,20.7-5.7,19.5,5.1,0,0,18.4-11.2,15.7-26.6Z"/>
        <g>
          <path class="cls-6" d="M89.7,176.9l-5.8,3.5.7-6.2c0-1.2,0-1.8-.2-1.9-.7-.6-3.9-.1-6.1.2-2.8.4-5.8.9-8.6.5v.7h-24.3c-.9,0-1.6.7-1.6,1.6s.7,1.6,1.6,1.6h23.5l-1.3,6h-10.1c-.9,0-1.6.7-1.6,1.6s.7,1.6,1.6,1.6h9.4l-1,4.4h-14.3c-.9,0-1.6.7-1.6,1.6s.7,1.6,1.6,1.6h13.7l-.7,3.4h72.6l9.5-43.7h-38.9c-2,11-11.9,19.8-18,23.5h0Z"/>
          <path class="cls-6" d="M95.9,133.4c6,2.9,10.8,6.6,11.8,12.5,0,.7.2,1.4.3,2.2h43.5l3.2-14.6h-58.8,0Z"/>
          <path class="cls-6" d="M53.9,184.5c0-.9-.7-1.6-1.6-1.6h-4.6c-.9,0-1.6.7-1.6,1.6s.7,1.6,1.6,1.6h4.6c.9,0,1.6-.7,1.6-1.6Z"/>
        </g>
        <g class="cls-3">
          <g class="cls-3">
            <g class="cls-3">
              <text class="cls-2" transform="translate(105.1 189.9)"><tspan x="0" y="0">SCE</tspan></text>
            </g>
          </g>
        </g>
      </g>
      <g>
        <g class="cls-7">
          <polygon class="cls-4" points="243.2 179.5 241.1 176 250.4 159.8 252.5 163.3 243.2 179.5"/>
          <polygon class="cls-4" points="255 161.1 251.9 163.3 241.6 147.9 244.7 145.7 255 161.1"/>
        </g>
        <path class="cls-5" d="M254.9,196.6l-13.8-20.7-12.1,20.7h-18.7l21.7-34.4-22.1-33.2h19.2l13.6,20.4,11.9-20.4h18.7l-21.5,34.1,22.3,33.5h-19.2,0Z"/>
        <rect class="cls-4" x="164.1" y="155.8" width="70.2" height="12.7"/>
        <path class="cls-4" d="M177.9,142.2v13.7h56.4v12.7h-56.4v14.8h24.9v13.2h-41.4v-67.6h41.4v13.2h-24.9Z"/>
        <path class="cls-6" d="M331.2,161.5c-1.8,3.2-4.6,5.9-8.3,7.8-3.7,2-8.3,3-13.9,3h-10.2v24.3h-16.5v-67.6h26.7c5.4,0,9.9.9,13.7,2.8s6.5,4.4,8.4,7.7,2.8,7,2.8,11.3-.9,7.5-2.7,10.7ZM314.8,157c1.5-1.5,2.3-3.6,2.3-6.3s-.8-4.8-2.3-6.3-3.9-2.2-7-2.2h-9v16.9h9c3.1,0,5.5-.7,7-2.2h0Z"/>
        <path class="cls-6" d="M376.9,196.6l-14.1-25.5h-3.9v25.5h-16.5v-67.6h27.6c5.3,0,9.9.9,13.6,2.8s6.6,4.4,8.4,7.7c1.9,3.2,2.8,6.9,2.8,10.8s-1.3,8.5-3.8,12-6.3,6-11.2,7.5l15.6,26.8h-18.6.1ZM358.9,159.4h10.2c3,0,5.3-.7,6.8-2.2s2.3-3.6,2.3-6.3-.8-4.6-2.3-6.1-3.8-2.2-6.8-2.2h-10.2v16.7h0Z"/>
        <path class="cls-6" d="M421.6,142.2v13.7h22v12.7h-22v14.8h24.9v13.2h-41.4v-67.6h41.4v13.2h-24.9Z"/>
        <path class="cls-6" d="M468.4,194.8c-3.9-1.6-7-4-9.4-7.1-2.3-3.1-3.6-6.9-3.7-11.4h17.5c.3,2.5,1.1,4.4,2.6,5.7s3.4,2,5.8,2,4.4-.6,5.8-1.7c1.4-1.1,2.1-2.7,2.1-4.7s-.6-3-1.7-4.1-2.5-2-4.1-2.7-4-1.5-7-2.4c-4.4-1.3-7.9-2.7-10.7-4-2.8-1.3-5.1-3.3-7.1-6-2-2.6-3-6.1-3-10.3,0-6.3,2.3-11.2,6.8-14.8,4.6-3.6,10.5-5.3,17.8-5.3s13.4,1.8,18,5.3c4.6,3.6,7,8.5,7.3,14.9h-17.8c-.1-2.2-.9-3.9-2.4-5.2s-3.4-1.9-5.7-1.9-3.6.5-4.8,1.6c-1.2,1.1-1.8,2.6-1.8,4.6s1,3.9,3.1,5.1c2.1,1.2,5.3,2.5,9.6,3.9,4.4,1.5,7.9,2.9,10.6,4.2s5.1,3.3,7.1,5.9c2,2.6,3,5.9,3,9.9s-1,7.3-2.9,10.5c-2,3.1-4.8,5.6-8.5,7.5s-8.1,2.8-13.2,2.8-9.4-.8-13.3-2.4h0Z"/>
        <path class="cls-6" d="M527.6,194.8c-3.9-1.6-7-4-9.4-7.1-2.3-3.1-3.6-6.9-3.7-11.4h17.5c.3,2.5,1.1,4.4,2.6,5.7s3.4,2,5.8,2,4.4-.6,5.8-1.7c1.4-1.1,2.1-2.7,2.1-4.7s-.6-3-1.7-4.1c-1.1-1.1-2.5-2-4.1-2.7s-4-1.5-7-2.4c-4.4-1.3-7.9-2.7-10.7-4s-5.1-3.3-7.1-6c-2-2.6-3-6.1-3-10.3,0-6.3,2.3-11.2,6.8-14.8,4.6-3.6,10.5-5.3,17.8-5.3s13.4,1.8,18,5.3c4.6,3.6,7,8.5,7.3,14.9h-17.8c0-2.2-.9-3.9-2.4-5.2s-3.4-1.9-5.7-1.9-3.6.5-4.8,1.6-1.8,2.6-1.8,4.6,1,3.9,3.1,5.1c2.1,1.2,5.3,2.5,9.6,3.9,4.4,1.5,7.9,2.9,10.6,4.2,2.7,1.3,5.1,3.3,7.1,5.9,2,2.6,3,5.9,3,9.9s-1,7.3-2.9,10.5c-2,3.1-4.8,5.6-8.5,7.5s-8.1,2.8-13.2,2.8-9.4-.8-13.3-2.4h0Z"/>
        <polygon class="cls-6" points="256.5 129 234.3 162.2 256.5 196.6 275.2 196.6 253.6 162.2 275.6 129 256.5 129"/>
        <polygon class="cls-4" points="232.9 129 255 162.2 232.9 196.6 214.2 196.6 235.7 162.2 213.7 129 232.9 129"/>
        <polygon class="cls-4" points="229 129 251.2 162.2 229 196.6 210.3 196.6 231.9 162.2 209.9 129 229 129"/>
      </g>
    </g>
  </g>
</svg>